# xmcd CD database file
#
# Track frame offsets:
#	150
#	19492
#	37542
#	57086
#	62216
#	82588
#	102973
#	133003
#	135907
#	156077
#	178061
#	179776
#	209116
#	231714
#	254285
#	256580
#	264830
#	274320
#
# Disc length: 3970 seconds
#
# Revision: 0
# Processed by: cddbd v1.5.1PL0 Copyright (c) Steve Scherf et al.
# Submitted via: CDex 1.51
#
DISCID=fd0f8012
DTITLE=DANCE★MAN - MIRRORBALLISM2
DYEAR=2000
DGENRE=Dance
TTITLE0=接吻のテーマ
TTITLE1=やっぱりビリである
TTITLE2=甘えてる円盤
TTITLE3=お知らせ
TTITLE4=漢字読めるけど書けない
TTITLE5=釣りしよう!ほら、サオ振ろう!
TTITLE6=ビール大好き
TTITLE7=MC1
TTITLE8=”ドーム3コ分”ってどのくらい？
TTITLE9=リツコ選んだ銀
TTITLE10=ICHIROのお遊び
TTITLE11=英語を使って話したい
TTITLE12=いつもゴールデンかラブラドール
TTITLE13=恋と愛の天国
TTITLE14=MC2
TTITLE15=メンバー紹介
TTITLE16=ニセダンス★マン登場
TTITLE17=なかったコトにして
EXTD=YEAR: 2000
EXTT0=
EXTT1=
EXTT2=
EXTT3=
EXTT4=
EXTT5=
EXTT6=
EXTT7=
EXTT8=
EXTT9=
EXTT10=
EXTT11=
EXTT12=
EXTT13=
EXTT14=
EXTT15=
EXTT16=
EXTT17=
PLAYORDER=
